<?xml version="1.0" encoding="UTF-8"?>
<svg width="64px" height="64px" viewBox="0 0 64 64" version="1.1" xmlns="http://www.w3.org/2000/svg" xmlns:xlink="http://www.w3.org/1999/xlink">
    <!-- Generator: Sketch 52.6 (67491) - http://www.bohemiancoding.com/sketch -->
    <title>Untitled</title>
    <desc>Created with Sketch.</desc>
    <g id="Page-1" stroke="none" stroke-width="1" fill="none" fill-rule="evenodd">
        <g id="pluginIcon" transform="translate(0.000000, 8.000000)" fill="#63A865">
            <path d="M63.25,5.82738286 C60.9521,6.78491429 58.4798,7.43122286 55.8853,7.72022857 C58.534,6.23350857 60.5651,3.87830857 61.5233,1.06843429 C59.0456,2.44726857 56.3025,3.44749714 53.3808,3.98756571 C51.0428,1.65156571 47.7098,0.190354286 44.0218,0.190354286 C36.9415,0.190354286 31.2004,5.57257143 31.2004,12.2122971 C31.2004,13.1530971 31.313,14.0703086 31.5327,14.9513143 C20.8757,14.44928 11.4268,9.664 5.1021,2.39058286 C3.9983,4.16548571 3.3663,6.23030857 3.3663,8.43538286 C3.3663,12.6056229 5.6296,16.2857143 9.0704,18.4413257 C6.9693,18.3783314 4.9918,17.8370743 3.2623,16.9366857 C3.2608,16.9865143 3.2608,17.0378971 3.2608,17.0890971 C3.2608,22.9127314 7.6809,27.7707886 13.5471,28.8768 C12.4711,29.1504457 11.3384,29.2980114 10.1686,29.2980114 C9.3414,29.2980114 8.5383,29.2228571 7.7556,29.0813257 C9.3884,33.8570057 14.1229,37.3339429 19.7331,37.4300343 C15.3447,40.65472 9.8171,42.5771886 3.8089,42.5771886 C2.7751,42.5771886 1.7538,42.5200457 0.7501,42.4082286 C6.4259,45.8207086 13.1654,47.8096457 20.4059,47.8096457 C43.9922,47.8096457 56.8883,29.4916571 56.8883,13.6049371 C56.8883,13.0838857 56.8768,12.5641143 56.853,12.0481829 C59.3573,10.3573943 61.5318,8.23853714 63.25,5.82738286 Z" id="Path"></path>
        </g>
    </g>
</svg>