<?xml version="1.0" encoding="UTF-8"?>
<svg width="64px" height="64px" viewBox="0 0 64 64" version="1.1" xmlns="http://www.w3.org/2000/svg" xmlns:xlink="http://www.w3.org/1999/xlink">
    <!-- Generator: Sketch 52.6 (67491) - http://www.bohemiancoding.com/sketch -->
    <title>Untitled 2</title>
    <desc>Created with Sketch.</desc>
    <g id="Page-1" stroke="none" stroke-width="1" fill="none" fill-rule="evenodd">
        <g id="pluginIcon_dark" transform="translate(0.000000, 5.000000)" fill="#42AD67">
            <path d="M63.25,7.1237 C60.9521,8.171 58.4798,8.8779 55.8853,9.194 C58.534,7.5679 60.5651,4.9919 61.5233,1.9186 C59.0456,3.4267 56.3025,4.5207 53.3808,5.1114 C51.0428,2.5564 47.7098,0.9582 44.0218,0.9582 C36.9415,0.9582 31.2004,6.845 31.2004,14.1072 C31.2004,15.1362 31.313,16.1394 31.5327,17.103 C20.8757,16.5539 11.4268,11.32 5.1021,3.3647 C3.9983,5.306 3.3663,7.5644 3.3663,9.9762 C3.3663,14.5374 5.6296,18.5625 9.0704,20.9202 C6.9693,20.8513 4.9918,20.2593 3.2623,19.2745 C3.2608,19.329 3.2608,19.3852 3.2608,19.4412 C3.2608,25.8108 7.6809,31.1243 13.5471,32.334 C12.4711,32.6333 11.3384,32.7947 10.1686,32.7947 C9.3414,32.7947 8.5383,32.7125 7.7556,32.5577 C9.3884,37.7811 14.1229,41.584 19.7331,41.6891 C15.3447,45.2161 9.8171,47.3188 3.8089,47.3188 C2.7751,47.3188 1.7538,47.2563 0.7501,47.134 C6.4259,50.8664 13.1654,53.0418 20.4059,53.0418 C43.9922,53.0418 56.8883,33.0065 56.8883,15.6304 C56.8883,15.0605 56.8768,14.492 56.853,13.9277 C59.3573,12.0784 61.5318,9.7609 63.25,7.1237 Z" id="Path"></path>
        </g>
    </g>
</svg>